<svg width="42" height="28" viewBox="0 0 42 28" fill="none" xmlns="http://www.w3.org/2000/svg">
<g id="outline / lock">
<path id="fill" d="M31.2145 11.1836H31.2922V6.72887C31.2922 3.58852 25.795 1.39999 20.8513 1.39999H20.6085C15.6746 1.39999 10.1774 3.58852 10.1774 6.72887V11.1577C9.10903 11.6304 8.40002 12.4398 8.40002 13.3527V24.4249C8.40002 25.8817 10.1871 27.0667 12.3724 27.0667H28.9709C31.1659 27.0667 32.9433 25.8817 32.9433 24.4249V13.3527C32.9433 12.4527 32.2537 11.6563 31.2145 11.1836ZM14.7131 10.7887V6.93607C14.7131 5.5828 17.5977 4.30077 20.6474 4.30077H20.8222C23.8729 4.30077 26.7565 5.5828 26.7565 6.93607V10.7887H14.7131Z" fill="white"/>
<path id="outline" d="M24.9888 18.837H16.1408C15.7426 18.837 15.4124 19.0572 15.4124 19.3226C15.4124 19.5946 15.7426 19.8082 16.1408 19.8082H24.9888C25.387 19.8082 25.7173 19.5946 25.7173 19.3226C25.7173 19.0572 25.387 18.837 24.9888 18.837ZM24.9888 18.837H16.1408C15.7426 18.837 15.4124 19.0572 15.4124 19.3226C15.4124 19.5946 15.7426 19.8082 16.1408 19.8082H24.9888C25.387 19.8082 25.7173 19.5946 25.7173 19.3226C25.7173 19.0572 25.387 18.837 24.9888 18.837ZM27.9511 17.7557C27.3489 17.147 26.3194 16.765 25.2132 16.765H16.1418C15.0249 16.765 13.9953 17.147 13.4029 17.7557C12.1985 17.8263 11.2467 18.4997 11.2467 19.3226C11.2467 20.1449 12.1985 20.8242 13.4029 20.896C13.9953 21.5047 15.0249 21.8867 16.1418 21.8867H25.2132C26.3204 21.8867 27.3489 21.5047 27.9424 20.896C29.1564 20.8248 30.1082 20.1449 30.1082 19.3226C30.1073 18.5003 29.1554 17.8269 27.9511 17.7557ZM27.7374 19.9313C27.6986 19.9313 27.6597 19.9248 27.6015 19.9183C27.281 19.8989 26.9896 20.009 26.8526 20.2026C26.5613 20.6364 25.9202 20.9155 25.2122 20.9155H16.1408C15.4318 20.9155 14.7811 20.6364 14.4994 20.2097C14.3829 20.0284 14.1206 19.9183 13.839 19.9183H13.7516C13.2077 19.963 12.7026 19.6911 12.7026 19.3226C12.7026 18.9594 13.2077 18.6881 13.7516 18.7334C14.0624 18.7528 14.3732 18.6363 14.4994 18.442C14.7811 18.0147 15.4318 17.7363 16.1408 17.7363H25.2122C25.9202 17.7363 26.5622 18.0147 26.8526 18.4485C26.9896 18.6428 27.3091 18.7464 27.6199 18.7334C28.1541 18.6881 28.6504 18.9659 28.6504 19.3226C28.6504 19.6593 28.2425 19.9313 27.7374 19.9313ZM24.9888 18.837H16.1408C15.7426 18.837 15.4124 19.0572 15.4124 19.3226C15.4124 19.5946 15.7426 19.8082 16.1408 19.8082H24.9888C25.387 19.8082 25.7173 19.5946 25.7173 19.3226C25.7173 19.0572 25.387 18.837 24.9888 18.837ZM24.9888 18.837H16.1408C15.7426 18.837 15.4124 19.0572 15.4124 19.3226C15.4124 19.5946 15.7426 19.8082 16.1408 19.8082H24.9888C25.387 19.8082 25.7173 19.5946 25.7173 19.3226C25.7173 19.0572 25.387 18.837 24.9888 18.837ZM24.9888 18.837H16.1408C15.7426 18.837 15.4124 19.0572 15.4124 19.3226C15.4124 19.5946 15.7426 19.8082 16.1408 19.8082H24.9888C25.387 19.8082 25.7173 19.5946 25.7173 19.3226C25.7173 19.0572 25.387 18.837 24.9888 18.837ZM24.9888 18.837H16.1408C15.7426 18.837 15.4124 19.0572 15.4124 19.3226C15.4124 19.5946 15.7426 19.8082 16.1408 19.8082H24.9888C25.387 19.8082 25.7173 19.5946 25.7173 19.3226C25.7173 19.0572 25.387 18.837 24.9888 18.837ZM24.9888 18.837H16.1408C15.7426 18.837 15.4124 19.0572 15.4124 19.3226C15.4124 19.5946 15.7426 19.8082 16.1408 19.8082H24.9888C25.387 19.8082 25.7173 19.5946 25.7173 19.3226C25.7173 19.0572 25.387 18.837 24.9888 18.837ZM27.9511 17.7557C27.3489 17.147 26.3194 16.765 25.2132 16.765H16.1418C15.0249 16.765 13.9953 17.147 13.4029 17.7557C12.1985 17.8263 11.2467 18.4997 11.2467 19.3226C11.2467 20.1449 12.1985 20.8242 13.4029 20.896C13.9953 21.5047 15.0249 21.8867 16.1418 21.8867H25.2132C26.3204 21.8867 27.3489 21.5047 27.9424 20.896C29.1564 20.8248 30.1082 20.1449 30.1082 19.3226C30.1073 18.5003 29.1554 17.8269 27.9511 17.7557ZM27.7374 19.9313C27.6986 19.9313 27.6597 19.9248 27.6015 19.9183C27.281 19.8989 26.9896 20.009 26.8526 20.2026C26.5613 20.6364 25.9202 20.9155 25.2122 20.9155H16.1408C15.4318 20.9155 14.7811 20.6364 14.4994 20.2097C14.3829 20.0284 14.1206 19.9183 13.839 19.9183H13.7516C13.2077 19.963 12.7026 19.6911 12.7026 19.3226C12.7026 18.9594 13.2077 18.6881 13.7516 18.7334C14.0624 18.7528 14.3732 18.6363 14.4994 18.442C14.7811 18.0147 15.4318 17.7363 16.1408 17.7363H25.2122C25.9202 17.7363 26.5622 18.0147 26.8526 18.4485C26.9896 18.6428 27.3091 18.7464 27.6199 18.7334C28.1541 18.6881 28.6504 18.9659 28.6504 19.3226C28.6504 19.6593 28.2425 19.9313 27.7374 19.9313ZM24.9888 18.837H16.1408C15.7426 18.837 15.4124 19.0572 15.4124 19.3226C15.4124 19.5946 15.7426 19.8082 16.1408 19.8082H24.9888C25.387 19.8082 25.7173 19.5946 25.7173 19.3226C25.7173 19.0572 25.387 18.837 24.9888 18.837ZM27.9511 17.7557C27.3489 17.147 26.3194 16.765 25.2132 16.765H16.1418C15.0249 16.765 13.9953 17.147 13.4029 17.7557C12.1985 17.8263 11.2467 18.4997 11.2467 19.3226C11.2467 20.1449 12.1985 20.8242 13.4029 20.896C13.9953 21.5047 15.0249 21.8867 16.1418 21.8867H25.2132C26.3204 21.8867 27.3489 21.5047 27.9424 20.896C29.1564 20.8248 30.1082 20.1449 30.1082 19.3226C30.1073 18.5003 29.1554 17.8269 27.9511 17.7557ZM27.7374 19.9313C27.6986 19.9313 27.6597 19.9248 27.6015 19.9183C27.281 19.8989 26.9896 20.009 26.8526 20.2026C26.5613 20.6364 25.9202 20.9155 25.2122 20.9155H16.1408C15.4318 20.9155 14.7811 20.6364 14.4994 20.2097C14.3829 20.0284 14.1206 19.9183 13.839 19.9183H13.7516C13.2077 19.963 12.7026 19.6911 12.7026 19.3226C12.7026 18.9594 13.2077 18.6881 13.7516 18.7334C14.0624 18.7528 14.3732 18.6363 14.4994 18.442C14.7811 18.0147 15.4318 17.7363 16.1408 17.7363H25.2122C25.9202 17.7363 26.5622 18.0147 26.8526 18.4485C26.9896 18.6428 27.3091 18.7464 27.6199 18.7334C28.1541 18.6881 28.6504 18.9659 28.6504 19.3226C28.6504 19.6593 28.2425 19.9313 27.7374 19.9313ZM24.9888 18.837H16.1408C15.7426 18.837 15.4124 19.0572 15.4124 19.3226C15.4124 19.5946 15.7426 19.8082 16.1408 19.8082H24.9888C25.387 19.8082 25.7173 19.5946 25.7173 19.3226C25.7173 19.0572 25.387 18.837 24.9888 18.837ZM31.2145 11.1836H31.2922V6.72887C31.2922 3.58852 25.795 1.39999 20.8513 1.39999H20.6085C15.6746 1.39999 10.1774 3.58852 10.1774 6.72887V11.1577C9.10903 11.6304 8.40002 12.4398 8.40002 13.3527V24.4249C8.40002 25.8817 10.1871 27.0667 12.3724 27.0667H28.9709C31.1659 27.0667 32.9433 25.8817 32.9433 24.4249V13.3527C32.9433 12.4527 32.2537 11.6563 31.2145 11.1836ZM11.6343 6.72887C11.6343 4.44969 15.9077 2.37123 20.6085 2.37123H20.8513C25.5521 2.37123 29.8353 4.44969 29.8353 6.72887V10.7887H28.2133V6.93607C28.2133 4.81229 24.3187 3.32953 20.8222 3.32953H20.6474C17.1509 3.32953 13.2562 4.81229 13.2562 6.93607V10.7887H11.6343V6.72887ZM26.7565 6.93607V10.7887H14.7131V6.93607C14.7131 5.5828 17.5977 4.30077 20.6474 4.30077H20.8222C23.8719 4.30077 26.7565 5.5828 26.7565 6.93607ZM31.4864 24.4249C31.4864 25.3443 30.3598 26.0954 28.9709 26.0954H12.3724C10.9835 26.0954 9.85689 25.3443 9.85689 24.4249V13.3527C9.85689 12.4333 10.9835 11.6822 12.3724 11.6822H28.9709C30.3598 11.6822 31.4864 12.4333 31.4864 13.3527V24.4249ZM27.9511 17.7557C27.3489 17.147 26.3194 16.765 25.2132 16.765H16.1418C15.0249 16.765 13.9953 17.147 13.4029 17.7557C12.1985 17.8263 11.2467 18.4997 11.2467 19.3226C11.2467 20.1449 12.1985 20.8242 13.4029 20.896C13.9953 21.5047 15.0249 21.8867 16.1418 21.8867H25.2132C26.3204 21.8867 27.3489 21.5047 27.9424 20.896C29.1564 20.8248 30.1082 20.1449 30.1082 19.3226C30.1073 18.5003 29.1554 17.8269 27.9511 17.7557ZM27.7374 19.9313C27.6986 19.9313 27.6597 19.9248 27.6015 19.9183C27.281 19.8989 26.9896 20.009 26.8526 20.2026C26.5613 20.6364 25.9202 20.9155 25.2122 20.9155H16.1408C15.4318 20.9155 14.7811 20.6364 14.4994 20.2097C14.3829 20.0284 14.1206 19.9183 13.839 19.9183H13.7516C13.2077 19.963 12.7026 19.6911 12.7026 19.3226C12.7026 18.9594 13.2077 18.6881 13.7516 18.7334C14.0624 18.7528 14.3732 18.6363 14.4994 18.442C14.7811 18.0147 15.4318 17.7363 16.1408 17.7363H25.2122C25.9202 17.7363 26.5622 18.0147 26.8526 18.4485C26.9896 18.6428 27.3091 18.7464 27.6199 18.7334C28.1541 18.6881 28.6504 18.9659 28.6504 19.3226C28.6504 19.6593 28.2425 19.9313 27.7374 19.9313ZM24.9888 18.837H16.1408C15.7426 18.837 15.4124 19.0572 15.4124 19.3226C15.4124 19.5946 15.7426 19.8082 16.1408 19.8082H24.9888C25.387 19.8082 25.7173 19.5946 25.7173 19.3226C25.7173 19.0572 25.387 18.837 24.9888 18.837ZM24.9888 18.837H16.1408C15.7426 18.837 15.4124 19.0572 15.4124 19.3226C15.4124 19.5946 15.7426 19.8082 16.1408 19.8082H24.9888C25.387 19.8082 25.7173 19.5946 25.7173 19.3226C25.7173 19.0572 25.387 18.837 24.9888 18.837ZM24.9888 18.837H16.1408C15.7426 18.837 15.4124 19.0572 15.4124 19.3226C15.4124 19.5946 15.7426 19.8082 16.1408 19.8082H24.9888C25.387 19.8082 25.7173 19.5946 25.7173 19.3226C25.7173 19.0572 25.387 18.837 24.9888 18.837ZM27.9511 17.7557C27.3489 17.147 26.3194 16.765 25.2132 16.765H16.1418C15.0249 16.765 13.9953 17.147 13.4029 17.7557C12.1985 17.8263 11.2467 18.4997 11.2467 19.3226C11.2467 20.1449 12.1985 20.8242 13.4029 20.896C13.9953 21.5047 15.0249 21.8867 16.1418 21.8867H25.2132C26.3204 21.8867 27.3489 21.5047 27.9424 20.896C29.1564 20.8248 30.1082 20.1449 30.1082 19.3226C30.1073 18.5003 29.1554 17.8269 27.9511 17.7557ZM27.7374 19.9313C27.6986 19.9313 27.6597 19.9248 27.6015 19.9183C27.281 19.8989 26.9896 20.009 26.8526 20.2026C26.5613 20.6364 25.9202 20.9155 25.2122 20.9155H16.1408C15.4318 20.9155 14.7811 20.6364 14.4994 20.2097C14.3829 20.0284 14.1206 19.9183 13.839 19.9183H13.7516C13.2077 19.963 12.7026 19.6911 12.7026 19.3226C12.7026 18.9594 13.2077 18.6881 13.7516 18.7334C14.0624 18.7528 14.3732 18.6363 14.4994 18.442C14.7811 18.0147 15.4318 17.7363 16.1408 17.7363H25.2122C25.9202 17.7363 26.5622 18.0147 26.8526 18.4485C26.9896 18.6428 27.3091 18.7464 27.6199 18.7334C28.1541 18.6881 28.6504 18.9659 28.6504 19.3226C28.6504 19.6593 28.2425 19.9313 27.7374 19.9313ZM24.9888 18.837H16.1408C15.7426 18.837 15.4124 19.0572 15.4124 19.3226C15.4124 19.5946 15.7426 19.8082 16.1408 19.8082H24.9888C25.387 19.8082 25.7173 19.5946 25.7173 19.3226C25.7173 19.0572 25.387 18.837 24.9888 18.837Z" fill="black"/>
</g>
</svg>
