<svg width="24" height="22" viewBox="0 0 24 22" fill="none" xmlns="http://www.w3.org/2000/svg">
<path d="M12 0C8.324 0 5.33333 2.59716 5.33333 5.78947C5.33333 8.98179 8.324 11.5789 12 11.5789C15.676 11.5789 18.6667 8.98179 18.6667 5.78947C18.6667 2.59716 15.676 0 12 0ZM12 9.26316C9.79467 9.26316 8 7.70463 8 5.78947C8 3.87432 9.79467 2.31579 12 2.31579C14.2053 2.31579 16 3.87432 16 5.78947C16 7.70463 14.2053 9.26316 12 9.26316ZM24 22V20.8421C24 16.3738 19.812 12.7368 14.6667 12.7368H9.33333C4.18667 12.7368 0 16.3738 0 20.8421V22H2.66667V20.8421C2.66667 17.6498 5.65733 15.0526 9.33333 15.0526H14.6667C18.3427 15.0526 21.3333 17.6498 21.3333 20.8421V22H24Z" fill="white"/>
</svg>
